<?xml version="1.0" encoding="UTF-8"?>
<svg xmlns="http://www.w3.org/2000/svg" viewBox="0 0 125.94 68.44">
  <defs>
    <style>
      .cls-1 {
        fill: #F5F5F5;
        fill-rule: evenodd;
        stroke-width: 0px;
      }
    </style>
  </defs>
    <path class="cls-1" d="m110.36,63.82c-1.78,3.35-11.53-6.13-13.34-7.93-4.31-4.29-6.69-12.77-10.48-13.11.58,4.16,6.72,10.32,9.43,14.17,4.99,7.12,8.08,7.24,13.79,11.49l-4.31-.5c-5.62-5.24-8.71-7.97-13.82-13.88-7.03-8.14-5.59-11.33-18.15-10.78-7.26.32-17.77-1.6-24.88-3.22-8.73-1.98-10.72-7.58-17.04-11.87-6.65-2.7-11.86,12.08-29.51,9.25,3.72-3.43,4.08,1.06,14.79-4.25,4.28-2.12,9.31-4.7,9.94-9.78-4.84.95-9.32,11.85-26.79,11.33,2.1-2.15,24.24-4.29,24.25-17.94,0-8.45,1.24-6.23,2.84-12.12-2.91-.81-3.26-.61-5.19-2.66,23.97.77,54.31,23.55,74.07,19.55,3.26-2.68,10.75-9.3,10.92-13.66l-1.43-1.94c1.18-1.59,1.11-2.73,3.11-2.97-.22-.26-.49-.58-.85-.88-1.03-.87-2.4-1.32-1.96-1.84.44-.52,1.63-.24,2.66.63.76.65,1.22,1.43,1.23,2.01,2.13-.1,4.4.19,6.3.36,4.93.45,9.42-.03,9.99,5.57-6.4,1.53-7.42-.79-13.1-.12-1.56,2.26-1.63,4.8-8.68,14.63-3.22,4.5-11.21,7.55-12.35,11.92-1.53,5.88,1.48,13.82,5.05,18.37,2.37,3.02,9.52,9.59,13.5,10.18h0Z"/>
</svg>